<svg id="Layer_2" data-name="Layer 2" xmlns="http://www.w3.org/2000/svg" viewBox="0 0 650.83 651.63"  width="20" height="20">
  <defs>
    <style>
      .cls-1 {
        fill: #fb779f;
      }

      .cls-2 {
        fill: #df7396;
      }

      .cls-3 {
        fill: #fefefe;
      }
    </style>
  </defs>
  <g id="Layer_1-2" data-name="Layer 1">
    <g>
      <path class="cls-1" d="M100.85,562.1c-12.29-11.98-23.63-24.81-34.11-38.4-18.11-23.48-32.73-49-43.62-76.53-11.19-28.27-18.53-57.52-21.45-87.92-3.74-39-1.39-77.49,8.6-115.33,16.17-61.24,47.48-113.57,93.83-156.86,20.93-19.54,44.19-35.68,69.4-49.19,17.88-9.58,36.74-16.57,55.89-23,18.05-6.07,36.63-9.85,55.42-12.19,5.99-.75,12.17-2.6,18.52-1.02,4.4,1.09,8.83-1.07,13.25-1.32,12.99-.73,26.03-.15,38.92,1.07,9.17,.87,18.38,1.92,27.54,4.05,13.69,3.17,27.54,5.97,40.88,10.18,10.18,3.21,20.34,7,30.18,11.49,18.56,8.46,36.54,17.83,53.35,29.42,10.91,7.52,21.78,15.09,31.62,24,12.87,11.63,26.23,22.77,37.26,36.28,14,17.14,26.45,35.31,36.87,54.84,.7,1.3,1.14,2.74,1.71,4.11-4.61,.75-7.38-1.09-9.35-5.42-2.31-5.09-4.08-10.5-7.75-14.92-.87-1.05-1.26-2.52-.67-3.79,1.28-2.7-.56-3.44-2.37-4.49-5.19-3.02-8.88-7.6-11.44-12.83-5.97-12.21-14.68-21.72-26.64-28.12-7.7-4.12-10.34-3.8-16.37,2.79-7.5,8.18-15.77,15.58-23.17,23.87-10.62,11.89-22.82,22.25-33.8,33.83-11.31,11.92-23.1,23.4-34.85,34.89-3.74,3.65-6.39,8.05-9.47,12.15-1.23,1.64-2.71,3.7-1.91,5.99,3.95,11.33,.18,23.03,1.77,34.47,.18,1.28,.23,2.71-1.13,3.6-.3-.93-.68-1.85-.88-2.8-4.14-20.12-6.79-40.54-12.06-60.44-6.89-26.03-20.45-47.36-44.09-61.29-7.02-4.14-14.19-7.79-18.94-14.83-2.51-3.71-6.7-5.24-10.79-6.68-13.04-4.6-26.29-3.93-39.7-2.01-26.46,3.79-48.18,15.44-65.46,36.23-22.21,26.73-33.89,58-41.93,91.08-4.88,20.06-8.43,40.41-9.47,61-.87,17.22-2.19,34.69,2.66,51.62,4.17,14.53,8.52,29.09,18.25,41.2,2.23,2.78,2.14,4.17-1.8,5.41-5.04,1.59-9.85,4.03-14.56,6.47-11.62,6.02-21.76,14.18-27.55,25.94-7.96,16.17-12.75,33.57-15.18,51.46-.96,7.09-3.77,14.33-.14,21.52-3.23-1.19-5.75-.41-8.58,1.75-5.54,4.23-10.06,9.47-15.17,14.07-8.38,7.55-16.08,15.75-24.21,23.54-5.56,5.33-10.99,10.77-7.25,19.58,.17,.41-.04,.98-.08,1.48Z"/>
      <path class="cls-2" d="M437.79,257.79c1.36-.89,1.3-2.31,1.13-3.6-1.59-11.44,2.18-23.14-1.77-34.47-.8-2.29,.68-4.34,1.91-5.99,3.08-4.1,5.73-8.5,9.47-12.15,11.75-11.49,23.54-22.97,34.85-34.89,10.98-11.58,23.18-21.94,33.8-33.83,7.4-8.29,15.67-15.69,23.17-23.87,6.03-6.59,8.67-6.91,16.37-2.79,11.96,6.4,20.67,15.91,26.64,28.12,2.56,5.23,6.24,9.81,11.44,12.83,1.81,1.05,3.65,1.78,2.37,4.49-.6,1.26-.2,2.74,.67,3.79,3.67,4.42,5.44,9.84,7.75,14.92,1.96,4.33,4.74,6.18,9.35,5.42,.49,.94,.98,1.88,1.47,2.82-5.95,3.97,5.73,6.71,.79,10.82-.57,.47,.8,1.95,2.06,2.24,.16,.04,.32,.06,.49,.09,2.48,.46,3.31,1.97,2.58,4.3-1.16,3.67,1.1,3.83,3.69,3.71,.22,.24,.34,.53,.37,.85-2.77,2.56-.03,2.58,1.47,3.18,.95,1.56,1.84,3.15,2.05,5.01-1.11,2.34-.43,3.98,1.93,4.98,.37,1,.74,1.99,1.11,2.99-2.03,3.65-.03,5.95,2.68,8,7.74,25.02,13.51,50.38,14.6,76.72,.54,12.99,.7,25.97,.58,38.95-.26,28.19-5.55,55.55-13.73,82.42-9.32,30.62-22.91,59.25-41.1,85.58-31.21,45.19-70.85,81.01-119.59,106.62-32.89,17.28-67.69,28.71-104.5,33.51-34,4.44-68.05,4.16-101.98-1.37-42.14-6.86-81.15-22.24-117.33-44.52-18.69-11.51-36.53-24.44-51.71-40.58,.03-.49,.25-1.07,.08-1.47-3.74-8.82,1.69-14.25,7.25-19.58,8.12-7.79,15.83-15.98,24.21-23.54,5.11-4.6,9.63-9.83,15.17-14.07,2.83-2.16,5.35-2.94,8.58-1.75,3.09,4.75,7.76,6.35,13.12,6.87,22.87,2.21,45.88,3.54,68.77,3.62,59.61,.21,119.26,2.07,178.86-1.29,15.78-.89,31.59-1.17,47.32-2.91,4.04-.45,6.21-2.68,7.75-6.11,1.13-2.53,1.22-5.18,1.15-7.84-.45-18.7-5.76-36.33-11.45-53.96-6.56-20.35-20.84-32.8-39.85-40.55-4.61-1.88-4.36-3.53-1.57-6.57,16.65-18.17,22.16-40.4,23.62-64.21,1.47-23.97-2.46-47.43-6.07-70.94Z"/>
      <path class="cls-1" d="M626.01,199.74c-2.6,.13-4.85-.04-3.69-3.71,.73-2.33-.1-3.84-2.58-4.3-.16-.03-.33-.06-.49-.09-1.26-.28-2.63-1.76-2.06-2.24,4.94-4.11-6.74-6.85-.79-10.82,3.82,6.77,7.6,13.56,9.61,21.15Z"/>
      <path class="cls-1" d="M635.61,224.76c-2.72-2.06-4.71-4.36-2.68-8,1.86,2.35,2.13,5.22,2.68,8Z"/>
      <path class="cls-1" d="M631.82,213.77c-2.36-.99-3.04-2.64-1.93-4.98,1.33,1.39,1.85,3.1,1.93,4.98Z"/>
      <path class="cls-1" d="M627.84,203.77c-1.49-.6-4.23-.62-1.47-3.18,.83,.9,1.52,1.87,1.47,3.18Z"/>
      <path class="cls-3" d="M437.79,257.79c3.6,23.51,7.53,46.98,6.07,70.94-1.46,23.8-6.97,46.04-23.62,64.21-2.79,3.04-3.04,4.69,1.57,6.57,19.01,7.76,33.29,20.2,39.85,40.55,5.68,17.63,10.99,35.26,11.45,53.96,.06,2.66-.02,5.3-1.15,7.84-1.54,3.43-3.71,5.67-7.75,6.11-15.73,1.74-31.54,2.01-47.32,2.91-59.6,3.37-119.25,1.51-178.86,1.29-22.89-.08-45.89-1.4-68.77-3.62-5.36-.52-10.04-2.12-13.12-6.87-3.63-7.19-.82-14.43,.15-21.52,2.43-17.89,7.22-35.29,15.18-51.46,5.79-11.76,15.93-19.92,27.55-25.94,4.71-2.44,9.52-4.88,14.56-6.47,3.94-1.24,4.03-2.63,1.8-5.41-9.73-12.11-14.08-26.67-18.25-41.2-4.85-16.93-3.53-34.39-2.66-51.62,1.04-20.6,4.59-40.94,9.47-61,8.04-33.08,19.72-64.35,41.93-91.08,17.28-20.8,39.01-32.44,65.46-36.23,13.41-1.92,26.67-2.59,39.7,2.01,4.09,1.44,8.28,2.97,10.79,6.68,4.76,7.04,11.92,10.7,18.94,14.83,23.63,13.92,37.2,35.25,44.09,61.29,5.27,19.9,7.92,40.32,12.06,60.44,.2,.95,.58,1.87,.88,2.8Zm-32.17,8.99c1.28-6.03,1.31-12.16,1.09-18.27-.13-3.58-1.02-7-5.1-8.2-3.89-1.14-6.38,1.3-8.39,3.93-3.46,4.53-5.27,9.86-6.52,15.38-.57,.52-1.14,1.04-1.71,1.56-2.37-.25-3.79-1.78-5.16-3.56-7.59-9.83-10.35-21.09-9.83-33.27,.42-9.72-1.71-18.82-6.04-27.46-.85-1.7-1.17-4.19-3.75-4.1-2.13,.07-2.76,2.1-3.64,3.71-1.12,2.04-2.18,4.15-3.58,5.98-1.28,1.67-2.91,3.67-5.31,2.85-2.38-.82-1.77-3.28-1.76-5.23,.04-6.33,.14-12.65,.12-18.98,0-1.41,.58-3.46-1.12-4.01-2.08-.67-2.59,1.61-3.45,2.89-6.09,9.11-13.56,16.73-23.15,22.23-11.15,6.39-23.21,10.83-34.7,16.48-14.88,7.31-28.39,16.19-34.23,32.98-.42,1.22-.81,2.74-2.5,2.72-1.55-.02-2.21-1.34-2.8-2.53-.45-.89-.7-1.87-1.11-2.78-1.4-3.04-3.34-5.52-7.09-5.26-3.83,.27-5.83,2.67-6.83,6.25-1.88,6.69-1.8,13.49-1.05,20.27,.97,8.78,2.42,17.47,6.88,25.33,2.21,3.9,5.62,6.09,9.95,4.83,4.61-1.34,5.61,.99,6.22,4.55,.67,3.94,1.53,7.83,3.26,11.48,9.32,19.74,23.87,33.77,44.68,40.98,6.77,3.05,13.51,5,21.09,2.37,5.65-1.96,11.31-3.9,16.72-6.39,24.78-11.35,43.27-27.79,45.29-57.21,.19-2.83,.91-4.08,3.97-2.1,6.7,4.35,10.06,3.27,13.72-3.95,3.75-7.39,5.17-15.35,5.84-23.5Zm-32.98,139.39c-3.06,1.84-5.29,3.24-7.58,4.52-1.12,.63-2.43,1.68-3.65,.6-1.21-1.07-.43-2.51,.14-3.68,3.14-6.42,2.17-12.66-.99-18.67-4.66-8.88-8.7-17.99-11.43-27.65-.59-2.08-1.18-2.76-3.42-1.76-4.4,1.95-8.92,3.68-13.46,5.29-14.49,5.15-28.6,5.21-42.26-2.91-6.24-3.71-7.18-2.98-6.92,4.09,.04,1,0,2.01,.1,3,.89,7.79-2.1,15.04-3.02,22.53-1.37,11.14-2.08,22.59,3.33,33.24,.56,1.1,.54,2.36-.43,3.24-1.2,1.1-2.16-.04-3.07-.64-1.8-1.19-3.53-2.5-5.32-3.71-.98-.66-1.85-1.37-2.71,.41-2.18,4.54-1.35,7.93,3.11,10.53,8.99,5.24,18.9,8.17,28.72,11.37,6.28,2.05,12.36,2.02,18.66,.46,11.86-2.95,23.21-7.08,33.75-13.38,9.87-5.9,16.59-13.65,16.44-26.87Zm-88.04-252.97c-10.36,3.89-20.91,16.96-19.54,24.16,.61-.38,1.15-.69,1.66-1.05,1.25-.91,2.05-3.13,4.03-2.04,1.93,1.06,.42,3.01,.58,4.56,.39,3.61-2.13,6.73-1.92,11.72,10.03-10.63,19.09-20.42,26.4-33.37-4.6,2.25-7.97,3.96-11.41,5.55-.96,.44-2.14,1.51-3.15,.29-.88-1.06,0-2.2,.44-3.24,.87-2.06,3.17-3.46,2.89-6.56Z"/>
      <path class="cls-1" d="M298.99,357.55c-20.81-7.21-35.36-21.23-44.68-40.98-1.72-3.65-2.58-7.54-3.26-11.48-.61-3.56-1.61-5.89-6.22-4.55-4.34,1.26-7.74-.92-9.95-4.83-4.45-7.85-5.91-16.55-6.88-25.33-.75-6.79-.83-13.58,1.05-20.27,1-3.57,3-5.98,6.83-6.25,3.75-.26,5.69,2.21,7.09,5.26,.42,.91,.67,1.89,1.11,2.78,.6,1.19,1.26,2.51,2.8,2.53,1.69,.02,2.08-1.51,2.5-2.72,5.84-16.79,19.35-25.67,34.23-32.98,11.49-5.65,23.55-10.08,34.7-16.48,9.59-5.5,17.06-13.12,23.15-22.23,.86-1.28,1.36-3.57,3.45-2.89,1.7,.55,1.11,2.6,1.12,4.01,.02,6.33-.08,12.65-.12,18.98-.01,1.95-.62,4.41,1.76,5.23,2.4,.82,4.03-1.18,5.31-2.85,1.41-1.83,2.47-3.94,3.58-5.98,.88-1.61,1.51-3.63,3.64-3.71,2.58-.09,2.9,2.4,3.75,4.1,4.32,8.64,6.45,17.74,6.04,27.46-.52,12.18,2.25,23.44,9.83,33.27,1.37,1.77,2.79,3.31,5.16,3.56-1.41,3.61-3.8,6.74-6.47,9.29-11.26,10.75-21.39,22.58-32.8,33.2-11.39,10.6-22.03,22.01-33.15,32.91-6.13,6.01-11.1,12.65-13.58,20.96Z"/>
      <path class="cls-2" d="M372.64,406.17c.15,13.21-6.57,20.97-16.44,26.87-10.54,6.3-21.89,10.43-33.75,13.38-6.3,1.57-12.37,1.59-18.66-.46-9.82-3.2-19.73-6.14-28.72-11.37-4.46-2.6-5.29-5.99-3.11-10.53,.85-1.78,1.73-1.07,2.71-.41,1.79,1.21,3.51,2.52,5.32,3.71,.91,.6,1.87,1.73,3.07,.64,.97-.89,.99-2.15,.43-3.24-5.41-10.64-4.7-22.1-3.33-33.24,.92-7.49,3.92-14.74,3.02-22.53-.11-.99-.07-2-.1-3-.25-7.07,.69-7.8,6.92-4.09,13.66,8.13,27.77,8.06,42.26,2.91,4.54-1.61,9.05-3.34,13.46-5.29,2.24-.99,2.83-.32,3.42,1.76,2.73,9.65,6.77,18.77,11.43,27.65,3.15,6.01,4.13,12.25,.99,18.67-.57,1.17-1.35,2.62-.14,3.68,1.22,1.07,2.53,.02,3.65-.6,2.29-1.28,4.52-2.68,7.58-4.52Z"/>
      <path class="cls-2" d="M298.99,357.55c2.48-8.31,7.45-14.96,13.58-20.96,11.12-10.9,21.76-22.31,33.15-32.91,11.41-10.62,21.54-22.45,32.8-33.2,2.67-2.55,5.05-5.68,6.47-9.29,.57-.52,1.14-1.04,1.71-1.56,7.46-.65,13.24,3.14,18.93,7.15-.67,8.15-2.09,16.11-5.84,23.5-3.66,7.22-7.02,8.3-13.72,3.95-3.05-1.98-3.77-.73-3.97,2.1-2.02,29.42-20.51,45.85-45.29,57.21-5.42,2.48-11.07,4.42-16.72,6.39-7.58,2.63-14.32,.68-21.09-2.37Z"/>
      <path class="cls-1" d="M284.6,153.21c.28,3.11-2.02,4.5-2.89,6.56-.44,1.04-1.33,2.18-.44,3.24,1.01,1.21,2.19,.15,3.15-.29,3.43-1.58,6.81-3.3,11.41-5.55-7.31,12.96-16.37,22.74-26.4,33.37-.21-4.98,2.31-8.11,1.92-11.72-.17-1.54,1.35-3.49-.58-4.56-1.98-1.09-2.78,1.14-4.03,2.04-.5,.37-1.05,.67-1.66,1.05-1.37-7.2,9.18-20.27,19.54-24.16Z"/>
      <path class="cls-1" d="M405.62,266.78c-5.69-4.02-11.47-7.8-18.93-7.15,1.26-5.52,3.06-10.86,6.52-15.38,2.01-2.63,4.5-5.07,8.39-3.93,4.08,1.2,4.97,4.62,5.1,8.2,.22,6.11,.19,12.23-1.09,18.27Z"/>
    </g>
  </g>
</svg>
