<svg id="Layer_2" data-name="Layer 2" xmlns="http://www.w3.org/2000/svg" viewBox="0 0 651.84 651.94"  width="20" height="20">
  <defs>
    <style>
      .cls-1 {
        fill: #0192d4;
      }

      .cls-2 {
        fill: #01a0e3;
      }

      .cls-3 {
        fill: #fefefe;
      }
    </style>
  </defs>
  <g id="Layer_1-2" data-name="Layer 1">
    <g>
      <path class="cls-2" d="M96.9,557.54c-13.49-13.15-25.49-27.56-36.55-42.79-12.06-16.61-22.34-34.3-30.82-52.93-12.53-27.52-21.38-56.19-25.77-86.24C.18,351.07-.94,326.51,.81,301.85c2.62-36.84,11.29-72.22,26.1-106.11,19.1-43.68,46.52-81.32,81.88-113.23,21.63-19.52,45.65-35.55,71.67-48.61C213.97,17.08,249.39,6.39,286.61,2.26c54.16-6.02,106.92-.2,157.92,19.9,32.83,12.94,62.72,30.71,89.88,53.08,6.51,5.36,12.96,10.93,18.5,17.4-.54,4.78-3.16,8.52-6.87,11.08-4.04,2.79-6.81,6.67-10.18,10.02-9.18,9.11-18.14,18.43-27.24,27.62-6.84,6.91-13.87,13.63-20.61,20.64-9.33,9.69-19.1,18.94-28.25,28.83-5.25,5.67-10.86,11.04-15.69,17.1-4.2,5.28-8.58,10.29-14.45,13.78,.01-1.32-.02-2.65,.04-3.97,.73-16.34,.96-32.65-5.66-48.07-2.55-5.94-5.57-11.71-8.62-17.42-5.96-11.13-13.89-19.95-27.21-22.05-1.44-.23-2.55-.98-3.19-2.17-3.54-6.54-9.79-9.86-15.96-13.04-12.31-6.34-25.47-4.74-38.18-2.25-17.62,3.45-34.92,8.52-52.5,12.23-13.27,2.8-26.59,6.66-40.42,3.03-3.76-.99-4.83,.88-4.23,4.34,1.04,5.99,.91,12.03-.73,17.84-4.3,15.32-6.65,30.93-6.86,46.78-.22,16.46-.29,32.97,5.06,48.89,1.28,3.81,1.08,7.33-1.32,10.89-5.63,8.38-6.32,17.26-3.69,27.15,3.84,14.48,10.78,26.03,24.78,32.49,2.31,1.07,3.37,2.89,4.04,5.32,3.24,11.68,8.2,22.53,16.65,31.43,3.48,3.67,4.73,7.73,4.3,12.68-.48,5.49-1.37,10.87-2.56,16.25-2.36,10.7-9.46,16.84-19.11,20.66-16.87,6.69-33.72,13.43-50.65,19.95-13.29,5.12-23.69,13.56-30.2,26.24-5.8,11.3-9.77,23.25-10.3,36.12-.57-1.21,.49-3.05-1.39-3.85-2.75,9.79-5.22,13.46-12.17,18.65-1.72,1.28-3.32,2.8-4.71,4.43-5.7,6.7-11.77,13.04-18.28,18.94-10.96,9.93-19.9,21.61-29.32,32.9-.28,.34-.23,.95-.34,1.43Z"/>
      <path class="cls-1" d="M429.61,221.7c5.87-3.49,10.26-8.51,14.45-13.78,4.82-6.07,10.44-11.43,15.69-17.1,9.15-9.89,18.93-19.13,28.25-28.83,6.74-7,13.77-13.73,20.61-20.64,9.1-9.19,18.06-18.51,27.24-27.62,3.37-3.34,6.14-7.23,10.18-10.02,3.71-2.56,6.33-6.3,6.87-11.08,11.91,9.28,21.28,20.94,30.56,32.69,25.16,31.85,43.39,67.35,55.02,106.12,10.12,33.72,14.03,68.29,13.26,103.58-1.03,47.09-11.99,91.61-32.44,133.81-20.75,42.82-49.68,79.49-86.61,109.43-53.07,43.02-113.8,67.84-182.11,72.75-57.23,4.11-112.25-5.37-164.23-30.1-31.91-15.18-60.99-34.69-86.23-59.64-1.17-1.16-2.17-2.48-3.24-3.73,.1-.48,.06-1.1,.34-1.43,9.41-11.29,18.36-22.97,29.32-32.9,6.51-5.9,12.58-12.24,18.28-18.94,1.39-1.63,2.99-3.15,4.71-4.43,6.95-5.19,9.42-8.85,12.17-18.65,1.88,.81,.82,2.64,1.39,3.85,.08,.99,.38,2.02,.21,2.96-1.5,8.11,1.99,13.4,8.61,17.94,13.76,9.44,29.2,14.65,45.17,17.99,50.28,10.5,100.96,15.28,152.36,9.81,25.88-2.75,51.52-6.56,76.63-13.43,12.49-3.42,23.8-9.37,34.22-17.03,3.36-2.47,6.11-5.59,5.44-10.03-1.79-11.94-1.03-24.32-6.14-35.69-4.67-10.39-9.79-20.36-19.83-26.86-11.57-7.49-24.4-12.14-37.17-16.95-9.66-3.64-19.19-7.57-28.75-11.47-13.46-5.5-18.94-15.8-20.33-29.37-.77-7.59-1.27-14.97,4.57-21.14,7.34-7.76,12.15-16.92,14.99-27.21,.97-3.51,2.21-7.16,5.84-8.91,17.57-8.49,23.34-24.01,25.02-41.92,.39-4.18,0-8.35-2.45-12.01-1.37-2.05-1.2-4,.02-6.07,4.68-7.92,7.12-16.4,6.72-25.69-.09-2.1,.67-4.25,1.04-6.37,.15-.5,.31-1.01,.46-1.51l-.12-.39Z"/>
      <path class="cls-3" d="M429.61,221.7s.12,.39,.12,.39c-.55,.38-.68,.89-.46,1.51-.37,2.12-1.13,4.27-1.04,6.37,.4,9.29-2.04,17.78-6.72,25.69-1.22,2.07-1.39,4.02-.02,6.07,2.44,3.66,2.84,7.82,2.45,12.01-1.68,17.91-7.46,33.43-25.02,41.92-3.63,1.75-4.87,5.4-5.84,8.91-2.84,10.28-7.65,19.45-14.99,27.21-5.83,6.17-5.34,13.55-4.57,21.14,1.39,13.57,6.86,23.87,20.33,29.37,9.55,3.9,19.09,7.83,28.75,11.47,12.77,4.81,25.59,9.45,37.17,16.95,10.05,6.5,15.16,16.47,19.83,26.86,5.12,11.38,4.35,23.76,6.14,35.69,.67,4.44-2.08,7.56-5.44,10.03-10.41,7.66-21.73,13.61-34.22,17.03-25.11,6.87-50.75,10.68-76.63,13.43-51.4,5.47-102.08,.69-152.36-9.81-15.97-3.34-31.41-8.55-45.17-17.99-6.62-4.54-10.1-9.83-8.61-17.94,.17-.94-.13-1.97-.21-2.96,.53-12.86,4.5-24.82,10.3-36.12,6.51-12.68,16.91-21.13,30.2-26.24,16.93-6.52,33.78-13.26,50.65-19.95,9.65-3.83,16.75-9.96,19.11-20.66,1.19-5.38,2.07-10.76,2.56-16.25,.44-4.95-.81-9.01-4.3-12.68-8.45-8.9-13.41-19.74-16.65-31.43-.67-2.42-1.73-4.25-4.04-5.32-14-6.46-20.94-18.01-24.78-32.49-2.63-9.9-1.93-18.78,3.69-27.15,2.4-3.57,2.6-7.08,1.32-10.89-5.35-15.92-5.28-32.43-5.06-48.89,.21-15.86,2.55-31.47,6.86-46.78,1.63-5.82,1.77-11.85,.73-17.84-.6-3.46,.47-5.32,4.23-4.34,13.82,3.63,27.15-.24,40.42-3.03,17.58-3.71,34.88-8.78,52.5-12.23,12.71-2.49,25.88-4.09,38.18,2.25,6.17,3.18,12.42,6.5,15.96,13.04,.64,1.19,1.76,1.95,3.19,2.17,13.32,2.09,21.25,10.91,27.21,22.05,3.06,5.71,6.07,11.47,8.62,17.42,6.62,15.43,6.39,31.74,5.66,48.07-.06,1.32-.03,2.64-.04,3.97Zm-50.75,202.92c-9.9,5.46-18.82,12.4-28.12,18.76-2.14,1.47-4.53,4.31-7.15,.67-1.37-1.9-2.77-2.36-4.49-.81-2.44,2.2-7.59,3.51-6,7.49,3.08,7.71,6.67,15.24,9.24,24.41,11.88-18.07,26.2-32.83,36.53-50.51l.12-.14-.13,.13Zm27.93-182.93c-1.83-6.27-4.66-12-8.63-17.23-3.71-4.88-7.35-9.79-10.46-15.15-4.21-7.25-4.54-15.6-7.58-23.16-1.29-3.21-2.56-4.11-5.83-2.91-6.68,2.46-13.34,4.78-20.59,5.56-25.85,2.8-51.08-1.1-76.17-6.49-3.42-.73-4.3,.23-5.46,2.8-4.4,9.72-9.6,19.06-15.99,27.56-7.64,10.16-12.61,21.02-12.47,33.96,.04,3.81-.48,7.63-.72,11.44-.15,2.45-.62,4.33-3.54,5.23-3.71,1.14-5.46,4.34-5.32,8.1,.14,3.97,.52,8,1.4,11.86,2.48,10.92,7.26,20.25,18.53,24.69,4.81,1.9,7.61,5.42,9,10.51,3.27,12,9.14,22.67,17.64,31.79,2.26,2.42,3.6,5.11,3.76,8.4-.55,10.77,.15,21.69-4.06,32.03-.92,2.26,0,4.21,2.23,5.45,12.79,7.13,25.58,14.26,38.34,21.44,2.03,1.14,3.91,1.65,6.08,.41,12.86-7.36,25.7-14.75,38.63-21.99,2.88-1.62,3.52-3.59,2.55-6.6-1.07-3.32-2.09-6.7-2.69-10.13-2.32-13.12-3.8-25.62,8.15-36.13,7.02-6.17,9.19-16.01,12.03-24.9,1.35-4.24,3.2-8.55,7.58-9.98,9.79-3.2,15.54-10.09,18.46-19.38,3.08-9.8,6.88-19.93-2.51-28.85-1.49-1.42-1.12-3.66-1.22-5.69-.22-4.22,1.4-8.63-1.11-12.65Zm-93.42,180.6c-.05-1.98-1.52-2.72-2.76-3.39-9.45-5.15-18.87-10.36-28.44-15.26-12.73-6.51-9.5-4.48-16.67,4.34-2.1,2.58-1.92,4.85,.8,6.74,10.75,7.48,21.65,14.74,32.05,22.73,2.38,1.83,4.5,1.41,5.94-1.68,1.82-3.92,4.44-7.38,7.12-10.77,.72-.91,1.36-1.87,1.97-2.72Zm60.91-22.38c-.84,.34-2.09,.75-3.27,1.34-3.12,1.55-6.24,3.11-9.29,4.79-7.42,4.07-14.87,8.1-22.17,12.39-2.06,1.21-5.25,2.62-2.79,6.11,2.86,4.07,5.94,7.98,8.71,12.11,1.38,2.06,2.99,2.1,4.63,.93,11.16-8.06,22.27-16.19,33.35-24.36,1.02-.75,2.06-1.71,1.84-3.3-.33-2.43-8.2-9.91-11.01-10Zm-67.89,74.64c3.12-8.58,6.11-16.12,8.58-23.84,1.38-4.32-2.71-5.99-5.27-8.1-1.44-1.18-3.38-.75-4.25,1.02-1.79,3.65-4.01,2.57-6.44,.91-7.79-5.34-15.56-10.7-23.4-15.96-1.25-.84-2.77-3.22-4.11-1.63-1.54,1.82,1.34,2.77,2.25,4.12,.73,1.1,1.61,2.09,2.4,3.15,9.83,13.11,19.66,26.22,30.24,40.33Z"/>
      <path class="cls-2" d="M429.27,223.6c-.22-.61-.09-1.12,.46-1.51-.15,.5-.31,1-.46,1.51Z"/>
      <path class="cls-2" d="M284.34,358.65c-.16-3.29-1.49-5.97-3.76-8.4-8.51-9.12-14.38-19.79-17.64-31.79-1.39-5.09-4.19-8.62-9-10.51-11.26-4.44-16.04-13.77-18.53-24.69-.88-3.87-1.25-7.89-1.4-11.86-.14-3.76,1.61-6.96,5.32-8.1,2.93-.9,3.39-2.78,3.54-5.23,.24-3.81,.76-7.63,.72-11.44-.14-12.93,4.83-23.8,12.47-33.96,6.4-8.51,11.59-17.84,15.99-27.56,1.16-2.56,2.05-3.53,5.46-2.8,25.09,5.39,50.32,9.29,76.17,6.49,7.25-.79,13.91-3.1,20.59-5.56,3.27-1.2,4.54-.3,5.83,2.91,3.04,7.56,3.37,15.92,7.58,23.16,3.11,5.36,6.76,10.26,10.46,15.15,3.97,5.23,6.8,10.96,8.63,17.23-2.09,.1-2.77,1.37-3,3.27-.29,2.44-1.83,4.2-3.6,5.8-6.97,6.29-14.21,12.33-20.83,18.99-17.37,17.48-35.18,34.53-51.91,52.65-10.04,10.87-22.66,19.17-31.54,31.31-1.87,2.56-5.2,5.67-8.54,.79-.27-.4-1.13-.41-1.68-.58-1.26,1.53,1.68,3.95-1.35,4.73Z"/>
      <path class="cls-1" d="M284.34,358.65c3.03-.78,.09-3.2,1.35-4.73,.55,.18,1.4,.18,1.68,.58,3.34,4.87,6.67,1.77,8.54-.79,8.88-12.14,21.5-20.44,31.54-31.31,16.73-18.12,34.54-35.17,51.91-52.65,6.61-6.65,13.85-12.69,20.83-18.99,1.77-1.6,3.31-3.36,3.6-5.8,.23-1.9,.91-3.17,3-3.27,2.51,4.02,.89,8.43,1.11,12.65,.11,2.03-.27,4.27,1.22,5.69,9.39,8.91,5.59,19.05,2.51,28.85-2.92,9.29-8.68,16.17-18.46,19.38-4.38,1.43-6.23,5.74-7.58,9.98-2.84,8.9-5.01,18.74-12.03,24.9-11.95,10.51-10.47,23.01-8.15,36.13,.61,3.43,1.62,6.8,2.69,10.13,.97,3.02,.33,4.99-2.55,6.6-12.92,7.25-25.77,14.63-38.63,21.99-2.17,1.24-4.05,.73-6.08-.41-12.76-7.19-25.55-14.32-38.34-21.44-2.24-1.25-3.15-3.19-2.23-5.45,4.21-10.33,3.51-21.25,4.06-32.03Z"/>
      <path class="cls-2" d="M313.37,422.29c-.61,.84-1.26,1.81-1.97,2.72-2.68,3.39-5.3,6.85-7.12,10.77-1.44,3.1-3.56,3.52-5.94,1.68-10.39-7.99-21.29-15.25-32.05-22.73-2.72-1.89-2.89-4.16-.8-6.74,7.17-8.83,3.94-10.86,16.67-4.34,9.58,4.9,19,10.11,28.44,15.26,1.24,.67,2.71,1.41,2.76,3.39Z"/>
      <path class="cls-2" d="M374.29,399.91c2.81,.09,10.68,7.58,11.01,10,.22,1.59-.82,2.55-1.84,3.3-11.08,8.17-22.19,16.3-33.35,24.36-1.63,1.18-3.24,1.13-4.63-.93-2.77-4.12-5.85-8.04-8.71-12.11-2.46-3.49,.72-4.9,2.79-6.11,7.29-4.29,14.74-8.32,22.17-12.39,3.05-1.68,6.17-3.24,9.29-4.79,1.17-.58,2.43-1,3.27-1.34Z"/>
      <path class="cls-2" d="M378.88,424.63c-10.34,17.69-24.65,32.44-36.53,50.51-2.56-9.17-6.15-16.69-9.24-24.41-1.59-3.97,3.56-5.28,6-7.49,1.71-1.55,3.12-1.09,4.49,.81,2.62,3.64,5,.8,7.15-.67,9.3-6.36,18.22-13.3,28.12-18.76h.02Z"/>
      <path class="cls-2" d="M306.4,474.55c-10.58-14.11-20.41-27.22-30.24-40.33-.79-1.06-1.67-2.06-2.4-3.15-.9-1.35-3.78-2.3-2.25-4.12,1.34-1.59,2.86,.79,4.11,1.63,7.84,5.26,15.61,10.63,23.4,15.96,2.43,1.66,4.65,2.74,6.44-.91,.87-1.78,2.81-2.21,4.25-1.02,2.56,2.11,6.65,3.78,5.27,8.1-2.47,7.71-5.46,15.26-8.58,23.84Z"/>
      <polygon class="cls-2" points="378.86 424.63 378.99 424.49 378.88 424.63 378.86 424.63"/>
    </g>
  </g>
</svg>
